<svg xmlns="http://www.w3.org/2000/svg" width="250" height="80" viewBox="0 0 250 80"><g fill="#2D2F33" fill-rule="evenodd"><g fill-rule="nonzero"><path d="M119.887 57.718l-.092.086c-.013.013-1.342 1.229-4.286 1.229-4.249 0-7.837-4.106-7.837-8.966 0-4.86 3.588-8.966 7.837-8.966 2.144 0 3.908.811 5.39 2.48l.56.63v-4.175l-.216-.08c-.066-.023-1.657-.59-5.734-.59-6.561 0-11.9 4.8-11.9 10.701 0 6.4 4.783 10.7 11.9 10.7 4.175 0 5.824-2.417 5.893-2.52l.35-.53h-1.865zM189.312 60.767h2.669V46.986l-2.669-2.869zM138.276 39.366c-5.862 0-10.632 4.8-10.632 10.7 0 5.9 4.77 10.7 10.632 10.7 5.863 0 10.633-4.8 10.633-10.7 0-5.9-4.77-10.7-10.633-10.7zm6.571 10.7c0 4.945-2.947 8.967-6.57 8.967-3.624 0-6.571-4.022-6.571-8.966 0-4.944 2.947-8.966 6.57-8.966 3.624 0 6.571 4.022 6.571 8.966zm17.43-10.699h-.002a28.458 28.458 0 0 0-2.306-.081c-.805 0-1.608.027-2.385.08-2.869.2-4.622.47-4.639.473l-.276.043v1.548l.334-.012c.028-.001 2.804-.1 4.122-.1 1.315 0 3.404.099 3.43.1 5.12.163 8.263 5.147 8.263 8.649 0 4.944-2.947 8.966-6.571 8.966l-3.092.008V44.207h-4.061v16.56h7.154c5.863 0 10.632-4.8 10.632-10.7 0-5.9-4.768-10.7-10.602-10.7zm65.678 10.362v8.82c-.748.216-2.547.484-3.336.484-4.248 0-7.838-4.106-7.838-8.966 0-4.86 3.59-8.966 7.838-8.966 2.144 0 3.907.811 5.39 2.48l.56.63v-4.175l-.216-.08c-.066-.023-1.657-.59-5.734-.59-6.561 0-11.9 4.8-11.9 10.701 0 6.4 4.783 10.7 11.9 10.7 6.932 0 7.38-3.415 7.396-3.56l.002-7.478h-4.062zM203.887 53.983l-11.155-14.617h-3.42v2.147l14.869 18.986v.268h2.354V39.366h-2.648zM179.066 42.185h4.061v1.226h-4.061zM179.066 39.366h4.061v1h-4.061zM179.066 40.643h4.061v1.062h-4.061zM179.066 43.935h4.061v16.832h-4.061z"/></g><path d="M105.216 19.216V30h1.392v-5.056h5.216V30h1.408V19.216h-1.408v4.512h-5.216v-4.512h-1.392zm13.664 2.864c2.224 0 3.728 1.616 3.728 3.984 0 2.864-1.984 4.112-3.856 4.112-2.096 0-3.712-1.536-3.712-3.984 0-2.592 1.696-4.112 3.84-4.112zm-.032 1.056c-1.664 0-2.384 1.536-2.384 3.008 0 1.696.976 2.976 2.352 2.976 1.344 0 2.352-1.264 2.352-3.008 0-1.312-.656-2.976-2.32-2.976zm4.992 6.496c.544.32 1.328.528 2.176.528 1.84 0 2.896-.96 2.896-2.32 0-1.152-.688-1.824-2.032-2.336-1.008-.384-1.472-.672-1.472-1.312 0-.576.464-1.056 1.296-1.056.72 0 1.28.256 1.584.448l.352-1.024c-.432-.256-1.12-.48-1.904-.48-1.664 0-2.672 1.024-2.672 2.272 0 .928.656 1.696 2.048 2.192 1.04.384 1.44.752 1.44 1.424 0 .64-.48 1.152-1.504 1.152-.704 0-1.44-.288-1.856-.56l-.352 1.072zm7.2-9.232v1.856h-1.2v1.072h1.2v4.224c0 .912.144 1.6.544 2.016.336.384.864.592 1.52.592.544 0 .976-.08 1.248-.192l-.064-1.056a3.132 3.132 0 0 1-.816.096c-.784 0-1.056-.544-1.056-1.504v-4.176h2.016v-1.072h-2.016v-2.224l-1.376.368zm11.2 5.984h-5.44c.032 1.904 1.248 2.688 2.656 2.688 1.008 0 1.616-.176 2.144-.4l.24 1.008c-.496.224-1.344.48-2.576.48-2.384 0-3.808-1.568-3.808-3.904s1.376-4.176 3.632-4.176c2.528 0 3.2 2.224 3.2 3.648 0 .288-.032.512-.048.656zm-5.424-1.008h4.112c.016-.896-.368-2.288-1.952-2.288-1.424 0-2.048 1.312-2.16 2.288zm12.496-6.736h1.408V28c0 .688.016 1.472.064 2h-1.264l-.064-1.344h-.032c-.432.864-1.376 1.52-2.64 1.52-1.872 0-3.312-1.584-3.312-3.936-.016-2.576 1.584-4.16 3.472-4.16 1.184 0 1.984.56 2.336 1.184h.032V18.64zm0 8.112v-1.344c0-.176-.016-.416-.064-.592-.208-.896-.976-1.632-2.032-1.632-1.456 0-2.32 1.28-2.32 2.992 0 1.568.768 2.864 2.288 2.864.944 0 1.808-.624 2.064-1.68.048-.192.064-.384.064-.608zM157.6 30h-1.216c.032-.528.064-1.312.064-2v-9.36h1.392v4.864h.032c.496-.864 1.392-1.424 2.64-1.424 1.92 0 3.28 1.6 3.264 3.952 0 2.768-1.744 4.144-3.472 4.144-1.12 0-2.016-.432-2.592-1.456h-.048L157.6 30zm.24-4.496v1.392c0 .176.032.352.064.512.272.976 1.088 1.648 2.112 1.648 1.472 0 2.352-1.2 2.352-2.976 0-1.552-.8-2.88-2.304-2.88-.96 0-1.856.656-2.144 1.728-.032.16-.08.352-.08.576zm6.688-3.248l2.864 7.136c.064.176.096.288.096.368 0 .08-.048.192-.112.336-.32.72-.8 1.264-1.184 1.568-.416.352-.88.576-1.232.688l.352 1.184c.352-.064 1.04-.304 1.728-.912.96-.832 1.648-2.192 2.656-4.848l2.112-5.52h-1.488l-1.536 4.544c-.192.56-.352 1.152-.496 1.616h-.032a29.173 29.173 0 0 0-.496-1.584l-1.696-4.576h-1.536z"/><path fill-rule="nonzero" d="M84.95 35.983c-1.906 0-3.576 1.21-4.51 3.026-3.177-6.898-9.786-13.288-17.954-15.92-4.407-1.76-7.502-5.14-7.885-9.089-.382 3.95-3.477 7.329-7.884 9.09-8.168 2.63-14.777 9.021-17.954 15.919-.934-1.815-2.604-3.026-4.51-3.026-2.927 0-5.3 2.853-5.3 6.371 0 3.52 2.373 6.372 5.3 6.372.89 0 1.728-.265 2.465-.732.252 11.425 12.633 18.842 27.884 18.862 15.25-.02 27.632-7.437 27.884-18.862a4.583 4.583 0 0 0 2.465.732c2.927 0 5.3-2.853 5.3-6.372-.002-3.518-2.374-6.37-5.3-6.37zm-58.288 8.363c-.248.917-1.352 1.308-2.465.872-1.114-.435-1.815-1.53-1.567-2.448.247-.917 1.351-1.308 2.465-.873 1.113.435 1.815 1.531 1.567 2.449zM54.6 63.676c-12.232-.02-22.138-5.792-22.138-14.054a10.566 10.566 0 0 1 .117-1.544c.246-1.624.877-4.102 1.829-5.53 2.287-3.313 6.367-5.52 11.022-5.52 3.583 0 6.823 1.31 9.17 3.424 2.347-2.114 5.588-3.424 9.17-3.424 4.656 0 8.735 2.207 11.023 5.52.952 1.428 1.582 3.906 1.829 5.53l.006.046a10.23 10.23 0 0 1 .096.982c.009.172.015.343.015.516 0 8.262-9.907 14.034-22.139 14.053zm30.405-18.458c-1.114.436-2.217.044-2.465-.872-.249-.917.454-2.014 1.567-2.449 1.114-.435 2.217-.044 2.465.873.248.917-.454 2.014-1.567 2.448zm-44.24 1.134c-.641 0-1.161-.626-1.161-1.397 0-.772.52-1.397 1.161-1.397.642 0 1.162.625 1.162 1.397 0 .771-.52 1.397-1.162 1.397zm27.671.002c-.641 0-1.162-.625-1.162-1.397 0-.771.52-1.397 1.162-1.397.642 0 1.162.626 1.162 1.397 0 .772-.52 1.397-1.162 1.397z"/></g></svg>