<svg xmlns="http://www.w3.org/2000/svg" viewBox="0 0 127.782 127.782"><path fill="#ffd400" d="M90.685 5.927H64.69L50.365 31.066h11.64l-15.27 31.025 40.129-35.908H73.827z"/><path fill="#ffb000" d="M59.724 14.642l-9.359 16.424h11.64l-15.27 31.025 30.389-27.193H66.995l7.252-8.715h-.42l9.604-11.541z"/><path d="M46.734 63.591a1.499 1.499 0 0 1-1.345-2.162l14.206-28.863h-9.229a1.501 1.501 0 0 1-1.304-2.242L63.386 5.185a1.502 1.502 0 0 1 1.304-.758h25.995a1.5 1.5 0 0 1 1.153 2.46L77.027 24.683h9.837a1.499 1.499 0 0 1 1 2.618l-40.13 35.908a1.494 1.494 0 0 1-1 .382zm6.212-34.025h9.059a1.499 1.499 0 0 1 1.345 2.162L51.492 55.821l31.446-28.138h-9.111a1.5 1.5 0 0 1-1.153-2.46l14.81-17.796H65.562L52.946 29.566z" fill="#33363a"/><path d="M113.1 84.413c0 20.676-22.032 37.441-49.209 37.441-27.178 0-49.209-16.766-49.209-37.441 0-20.68 22.031-45.459 49.209-45.459 27.177 0 49.209 24.78 49.209 45.459z" fill="#fff800"/><path d="M113.1 84.413c0 20.676-22.032 37.441-49.209 37.441-27.178 0-49.209-16.766-49.209-37.441 0-20.68 22.031-34.928 49.209-34.928 27.177.001 49.209 14.249 49.209 34.928z" fill="#ffd400"/><path d="M74.37 74.615c0 1.393-4.691 1.643-10.479 1.643s-10.479-.25-10.479-1.643c0-1.395 4.691-5.037 10.479-5.037S74.37 73.22 74.37 74.615z" fill="#fff800"/><path d="M113.1 84.413c0 20.676-22.032 37.441-49.209 37.441-27.178 0-49.209-16.766-49.209-37.441 0-20.682 6.261 18.34 49.209 18.34S113.1 63.732 113.1 84.413z" fill="#ffb000"/><path d="M63.891 123.355c-27.961 0-50.709-17.469-50.709-38.941 0-21.27 22.619-46.959 50.709-46.959S114.6 63.144 114.6 84.413c0 21.473-22.748 38.942-50.709 38.942zm0-82.901c-26.428 0-47.709 24.048-47.709 43.959 0 19.818 21.402 35.941 47.709 35.941S111.6 104.232 111.6 84.413c0-19.911-21.282-43.959-47.709-43.959z" fill="#33363a"/><path d="M9.197 47.273c6.385 10.541 15.331 16.738 23.985 17.811 1.492-10.754-.872-23.232-7.258-33.773C19.539 20.767 10.593 14.57 1.94 13.501c-1.493 10.75.872 23.231 7.257 33.772z" fill="#ffd400"/><path d="M1.94 13.501c-1.492 10.75.872 23.23 7.258 33.771 6.385 10.541 15.331 16.738 23.985 17.811L1.94 13.501z" fill="#ffb000"/><path d="M34.587 51.296c-1.041-7.334-3.593-14.514-7.379-20.764-6.417-10.594-15.56-17.344-25.085-18.52a1.497 1.497 0 0 0-1.669 1.282c-1.611 11.602 1.108 24.27 7.46 34.755 4.339 7.166 9.961 12.622 16.259 15.778a1.499 1.499 0 0 0 1.344-2.682c-5.791-2.903-10.99-7.969-15.036-14.651a51.824 51.824 0 0 1-4.567-9.713c6.1-1 13.157 2.117 12.314-12.987 2.338 2.362 4.503 5.137 6.414 8.292 3.579 5.906 5.99 12.694 6.975 19.631.117.82.879 1.385 1.696 1.274a1.498 1.498 0 0 0 1.274-1.695z" fill="#33363a"/><path d="M118.584 47.273c-6.385 10.541-15.331 16.738-23.985 17.811-1.492-10.754.871-23.232 7.258-33.773 6.386-10.543 15.332-16.74 23.986-17.808 1.491 10.748-.872 23.229-7.259 33.77z" fill="#ffd400"/><path d="M125.843 13.501c1.491 10.75-.872 23.23-7.259 33.771-6.385 10.541-15.331 16.738-23.985 17.811l31.244-51.582z" fill="#ffb000"/><path d="M127.328 13.295a1.499 1.499 0 0 0-1.669-1.282c-9.525 1.176-18.669 7.926-25.086 18.52-3.787 6.253-6.339 13.434-7.378 20.764a1.5 1.5 0 0 0 2.97.422c.982-6.934 3.395-13.722 6.974-19.631 1.911-3.155 4.076-5.93 6.414-8.292-.844 15.104 6.214 11.987 12.315 12.987a51.824 51.824 0 0 1-4.567 9.713c-4.048 6.684-9.247 11.75-15.036 14.651a1.5 1.5 0 1 0 1.344 2.682c6.296-3.155 11.918-8.611 16.259-15.778 6.351-10.484 9.071-23.152 7.46-34.756z" fill="#33363a"/><circle cx="32.889" cy="87.775" r="7.013" fill="#ff1a1a"/><path d="M39.902 87.775a7.014 7.014 0 0 1-14.027 0" fill="#d61d1d"/><circle cx="94.892" cy="87.775" r="7.014" fill="#ff1a1a"/><path d="M101.905 87.775a7.015 7.015 0 0 1-14.028 0" fill="#d61d1d"/><path d="M73.528 80.281a1.5 1.5 0 0 0-1.5 1.5 2.592 2.592 0 0 1-2.591 2.588h-1.456a2.592 2.592 0 0 1-2.59-2.588v-1.455c0-.073-.011-.143-.021-.213l3.11-1.556a1.502 1.502 0 0 0-.671-2.842h-7.837a1.502 1.502 0 0 0-.671 2.842l3.109 1.556c-.01.07-.021.14-.021.213v1.455a2.591 2.591 0 0 1-2.589 2.588h-1.457a2.592 2.592 0 0 1-2.591-2.588 1.5 1.5 0 0 0-3 0 5.596 5.596 0 0 0 5.591 5.588H59.8a5.569 5.569 0 0 0 4.09-1.792 5.571 5.571 0 0 0 4.091 1.792h1.456a5.596 5.596 0 0 0 5.591-5.588 1.5 1.5 0 0 0-1.5-1.5z" fill="#33363a"/><path d="M47.729 70.144a8.05 8.05 0 0 1-8.053 8.051 8.05 8.05 0 0 1-8.051-8.051 8.052 8.052 0 1 1 16.104 0z" fill="#6d5c4d"/><circle cx="35.672" cy="67.527" r="3.281" fill="#fff"/><path d="M39.676 60.591c-3.245 0-6.113 1.63-7.84 4.111a4.84 4.84 0 0 0-.286.447 9.489 9.489 0 0 0-1.425 4.995c0 5.267 4.284 9.551 9.551 9.551 5.268 0 9.553-4.284 9.553-9.551 0-5.268-4.286-9.553-9.553-9.553zm0 16.104a6.56 6.56 0 0 1-6.047-4.035c.681-.018 1.511-.202 2.44-.394.356-.03.699-.097 1.029-.201.809-.145 1.675-.259 2.577-.259 2.413 0 4.573.814 6.049.854a6.56 6.56 0 0 1-6.048 4.035z" fill="#33363a"/><circle cx="35.672" cy="67.527" r="1.779" fill="#fff"/><path d="M96.155 70.144a8.049 8.049 0 0 1-8.051 8.051 8.05 8.05 0 0 1-8.052-8.051 8.052 8.052 0 1 1 16.103 0z" fill="#6d5c4d"/><circle cx="84.1" cy="67.527" r="3.28" fill="#fff"/><path d="M88.105 60.591c-3.243 0-6.11 1.629-7.837 4.108a4.888 4.888 0 0 0-.292.455 9.481 9.481 0 0 0-1.423 4.99c0 5.267 4.285 9.551 9.552 9.551s9.551-4.284 9.551-9.551c-.001-5.268-4.285-9.553-9.551-9.553zm0 16.104a6.562 6.562 0 0 1-6.048-4.035c.689-.019 1.527-.201 2.471-.397.335-.03.658-.093.97-.189.819-.148 1.693-.268 2.607-.268 2.413 0 4.571.814 6.047.854a6.56 6.56 0 0 1-6.047 4.035z" fill="#33363a"/><circle cx="84.101" cy="67.527" r="1.779" fill="#fff"/></svg>